<?xml version="1.0" encoding="utf-8"?>
<!-- Generator: Adobe Illustrator 26.1.0, SVG Export Plug-In . SVG Version: 6.00 Build 0)  -->
<svg version="1.1" id="Calque_1" xmlns="http://www.w3.org/2000/svg" xmlns:xlink="http://www.w3.org/1999/xlink" x="0px" y="0px"
	 viewBox="0 0 188.9 168.5" style="enable-background:new 0 0 188.9 168.5;" xml:space="preserve">
<style type="text/css">
	.st0{fill:#799A2E;}
</style>
<g id="Logo">
	<g>
		<path class="st0" d="M94.4,107.4L94.4,107.4l-1.5-1.2c-7.1-6.1-17.3-9.9-26.3-13.7C53.3,87,40.8,81.8,40.8,70.2
			c0-10.4,9.6-18.2,22.3-18.2c6.2,0,12.4,1,19,3.1c4,1.3,8.9,2.8,12.3,4.5h0c3.5-1.7,8.3-3.2,12.3-4.5c6.6-2.1,12.8-3.1,19-3.1
			c12.7,0,22.3,7.8,22.3,18.2c0,11.6-12.6,16.8-25.9,22.3c-9,3.7-19.2,7.6-26.3,13.7L94.4,107.4L94.4,107.4L94.4,107.4z"/>
		<path id="_x3C_Tracé_transparent_x3E__00000062166025038992666920000003346699202962811565_" class="st0" d="M94.4,39
			c7.3-3.6,18.5-7,31.2-7c25.5,0,44.6,16.5,44.6,38.6c0,31.4-37.2,36.3-54.3,47.7c-5.4,3.7-9.1,9.9-9.1,17
			c0,18.4,14.9,33.3,33.3,33.3c9.2,0,17.5-3.7,23.5-9.8l0,0c15.7-16.9,25.2-39.4,25.2-64.3C188.9,42.3,146.6,0,94.4,0
			C42.3,0,0,42.3,0,94.4c0,24.8,9.6,47.4,25.2,64.3l0,0c6,6,14.4,9.8,23.5,9.8c18.4,0,33.3-14.9,33.3-33.3c0-7.1-3.6-13.3-9.1-17
			c-17.1-11.4-54.3-16.2-54.3-47.7c0-22.1,19.1-38.6,44.6-38.6C76,31.9,87.2,35.4,94.4,39z"/>
	</g>
</g>
</svg>
